<?xml version="1.0" encoding="UTF-8"?>
<svg id="Ebene_1" xmlns="http://www.w3.org/2000/svg" width="210.0506783" height="78.6976624" version="1.1" viewBox="0 0 210.0506783 78.6976624">
  <!-- Generator: Adobe Illustrator 29.4.0, SVG Export Plug-In . SVG Version: 2.1.0 Build 152)  -->
  <defs>
    <style>
      .st0 {
        fill: red;
      }
    </style>
  </defs>
  <path d="M74.1703906,77.4205843h-24.4914509l-8.5892575-19.7326709c-1.277078-2.9014183-1.3928321-3.1336831-2.5533994-5.5713285-.5810402.8125484-2.9021749,4.0627422-3.3667045,4.75878l-14.2770966,20.5452194H0l30.1785335-41.321947L13.0000186,0h24.607205l36.563167,77.4205843Z"/>
  <polygon class="st0" points="56.6178913 35.4579706 83.3399258 0 62.5631982 0 48.8243015 18.9554918 56.6178913 35.4579706"/>
  <polygon points="102.8349061 77.4205843 80.6645898 77.4205843 89.7504231 21.9380515 112.0364935 21.9380515 102.8349061 77.4205843"/>
  <polygon class="st0" points="112.8490419 16.830496 90.6787257 16.830496 93.4643899 0 115.6347062 0 112.8490419 16.830496"/>
  <path d="M154.8061505,38.9235565c-1.7777957-4.3333318-6.1111275-5.3333872-10.2214202-5.3333872-3.4440719,0-5.777293,1.2223703-5.777293,3.222481,0,2.6663315,2.2217015,3.1102373,6.6658288,3.9994973,10.6660502,2.2217015,12.8877517,2.8886465,16.1095086,4.7772376,5.3333872,3.1109615,8.2220337,7.5550887,8.2220337,13.4431771,0,6.3327184-4.0002214,19.6651-27.4425037,19.6651-7.7766795,0-15.1094532-1.4446853-20.8867462-5.4441826-5.4441826-3.6663869-6.6658288-7.8881991-7.5550887-10.9991606l17.109564-2.4440165c.8892599,2.0001107,2.4447407,5.8880884,11.554586,5.8880884,5.999608,0,7.2219783-2.3332211,7.2219783-3.4440719,0-2.1109061-1.2223703-2.3332211-10.7768456-4.4441272-6.1104034-1.4439612-19.887415-4.4441272-19.887415-17.2203594,0-9.1105694,6.7773483-19.3312655,25.220078-19.3312655,6.6658288,0,12.6654367,1.3331658,18.2204147,4.6657181,5.8880884,3.4440719,7.3327737,6.8881437,8.2213095,9.4436798l-15.997989,3.5555914Z"/>
  <polygon class="st0" points="206.6507796 0 187.7646079 0 166.7395622 0 163.9284113 16.830496 185.0092062 16.830496 175.0896276 77.4205843 197.2599439 77.4205843 210.0506783 0 206.6507796 0"/>
</svg>